<svg width="110" height="27" viewBox="0 0 110 27" fill="none" xmlns="http://www.w3.org/2000/svg">
<mask id="mask0_1_601" style="mask-type:luminance" maskUnits="userSpaceOnUse" x="0" y="6" width="21" height="21">
<path fill-rule="evenodd" clip-rule="evenodd" d="M0 6.63025H20.6538V26.3562H0V6.63025Z" fill="white"/>
</mask>
<g mask="url(#mask0_1_601)">
<path fill-rule="evenodd" clip-rule="evenodd" d="M10.3267 7.33466C12.9713 6.24875 17.1571 6.01078 19.4038 9.64965C21.8018 13.5324 20.3645 17.3559 18.3173 20.107C16.2988 22.8198 13.3004 24.9658 11.0719 26.1353C10.8076 26.2739 10.616 26.3606 10.3074 26.356C10.0132 26.3521 9.84635 26.2739 9.58174 26.1353C7.35333 24.9658 4.35491 22.8198 2.33641 20.107C0.289186 17.3559 -1.14784 13.5324 1.24985 9.64965C3.4963 6.01111 7.6821 6.24908 10.3267 7.33466ZM10.3267 21.5404C11.6259 20.7676 12.9908 19.8638 14.4868 18.127C16.3868 15.9219 17.0908 13.7256 15.8331 11.9627C14.9161 10.677 12.8439 10.4606 11.1853 11.6332C10.8324 11.8829 10.565 12.0153 10.3267 11.9941C10.0887 12.0153 9.8213 11.8829 9.46838 11.6332C7.80983 10.4606 5.73755 10.677 4.82058 11.9627C3.56321 13.7256 4.26721 15.9219 6.16685 18.127C7.66285 19.8638 9.02808 20.7676 10.3267 21.5404Z" fill="#F9B601"/>
</g>
<path fill-rule="evenodd" clip-rule="evenodd" d="M31.0116 6.80049C31.5639 6.55617 32.1951 6.43222 32.9035 6.43222C33.7405 6.43222 34.5336 6.60074 35.2838 6.93616C36.0342 7.27157 36.6532 7.74102 37.1442 8.34191L37.2087 8.42097L37.2875 8.3572C37.4828 8.19877 37.6258 8.0836 37.7127 8.0156C37.8208 7.92516 37.9199 7.84481 38.0062 7.77714C39.1205 6.88215 40.4506 6.43222 42.0011 6.43222C42.9288 6.43222 43.7792 6.57927 44.5521 6.87077C45.3247 7.13949 45.9898 7.54355 46.5452 8.07904C47.1007 8.59209 47.529 9.21737 47.8287 9.9549C48.1274 10.6687 48.2779 11.4628 48.2779 12.3383V22.6942C48.2779 23.8267 48.0928 24.6036 47.7449 25.0522C47.4013 25.4943 46.8275 25.7289 45.9935 25.7289C45.2552 25.7289 44.687 25.4774 44.2733 24.9819C43.8795 24.4835 43.6764 23.7727 43.6764 22.8305V13.1588C43.6764 12.4287 43.4618 11.8402 43.0229 11.4062C42.6057 10.9703 42.0322 10.7598 41.3142 10.7598C40.5519 10.7598 39.9435 10.9836 39.5046 11.4423C39.0887 11.9007 38.8859 12.5354 38.8859 13.3296V23.0355C38.8859 23.907 38.6834 24.5723 38.2903 25.0486C37.8996 25.4989 37.3526 25.7289 36.6342 25.7289C35.8928 25.7289 35.3221 25.4972 34.9093 25.0454C34.5178 24.5691 34.3165 23.9152 34.3165 23.0699V13.0901C34.3165 12.3643 34.1256 11.7859 33.7299 11.3727C33.334 10.9598 32.781 10.7598 32.0851 10.7598C31.3412 10.7598 30.734 11.0086 30.2752 11.511C29.8378 11.9924 29.6247 12.649 29.6247 13.4662V23.0355C29.6247 24.8576 28.8736 25.7289 27.3727 25.7289C25.827 25.7289 25.0557 24.8446 25.0557 23.0013V9.09147C25.0557 8.24171 25.2491 7.60992 25.6186 7.18146C25.988 6.73185 26.5136 6.50054 27.2092 6.50054C27.7447 6.50054 28.1441 6.6362 28.4026 6.82327C28.6637 7.01196 28.9064 7.33306 29.1434 7.87246L29.2011 8.00292L29.306 7.90987C29.888 7.39227 30.458 7.02302 31.0116 6.80049Z" fill="#FEFEFE"/>
<path fill-rule="evenodd" clip-rule="evenodd" d="M54.404 25.0209C54.0096 25.4917 53.4983 25.7289 52.8609 25.7289C52.2437 25.7289 51.7312 25.5036 51.3154 25.0521C50.9201 24.6005 50.7222 24.0319 50.7222 23.3351V3.27392C50.7222 1.49804 51.4524 0.64325 52.923 0.64325C54.3093 0.64325 54.9999 1.46296 54.9999 3.1719V23.2675C54.9999 23.9643 54.8005 24.5462 54.404 25.0209Z" fill="#FEFEFE"/>
<path fill-rule="evenodd" clip-rule="evenodd" d="M72.4547 6.80049C73.1357 6.55519 73.8714 6.43222 74.6622 6.43222C75.625 6.43222 76.5011 6.60115 77.2888 6.93511C78.0966 7.24675 78.7779 7.7257 79.3294 8.36968C79.8165 8.90138 80.156 9.51268 80.3462 10.1974C80.5581 10.8628 80.6666 11.7136 80.6666 12.7491V23.1516C80.6666 23.9215 80.4458 24.5406 80.0122 25.016C79.6 25.4897 79.0649 25.7289 78.3985 25.7289C77.753 25.7289 77.2059 25.502 76.7488 25.0461C76.3143 24.5917 76.0978 24.0312 76.0978 23.3555V13.9394C76.0978 13.2598 76.0762 12.787 76.031 12.5265C75.9856 12.2398 75.8832 11.9666 75.7246 11.7061C75.539 11.39 75.2613 11.1505 74.8982 10.9841C74.5589 10.7961 74.1757 10.7036 73.7524 10.7036C73.3049 10.7036 72.8892 10.7968 72.5063 10.9858C72.1247 11.1735 71.8061 11.4353 71.5575 11.767C71.3985 12.0048 71.2826 12.2724 71.2145 12.5569C71.1703 12.8329 71.1471 13.2964 71.1471 13.9394V23.2196C71.1471 24.0403 70.9464 24.6558 70.5586 25.0829C70.1711 25.5091 69.6168 25.7289 68.8792 25.7289C68.2115 25.7289 67.6644 25.5004 67.2302 25.047C66.8189 24.5716 66.6111 23.9658 66.6111 23.2196V8.83989C66.6111 8.08814 66.801 7.51729 67.1671 7.11245C67.5339 6.70826 68.0455 6.50018 68.7166 6.50018C69.4356 6.50018 69.9159 6.7636 70.2375 7.14902C70.4874 7.44804 70.7491 7.92019 70.7491 7.92019L70.8369 7.82861C71.2575 7.38849 71.7956 7.04482 72.4547 6.80049Z" fill="#FEFEFE"/>
<path fill-rule="evenodd" clip-rule="evenodd" d="M107.072 6.43222C107.965 6.43222 108.672 6.66449 109.205 7.11967C109.734 7.57226 110 8.17474 110 8.93714C110 9.57064 109.818 10.0743 109.462 10.4577C109.108 10.8399 108.626 11.035 108.006 11.035H107.811L106.411 10.8993H106.206C105.416 10.8993 104.843 11.223 104.511 11.8743C104.372 12.157 104.28 12.4622 104.234 12.7901C104.189 13.0877 104.166 13.5677 104.166 14.2316V23.4617C104.166 24.1634 103.962 24.7106 103.563 25.1164C103.165 25.5212 102.617 25.7289 101.905 25.7289C101.146 25.7289 100.577 25.5208 100.181 25.1173C99.8053 24.7139 99.6111 24.134 99.6111 23.3603V8.76754C99.6111 8.041 99.8063 7.48116 100.183 7.07606C100.56 6.65028 101.074 6.43222 101.738 6.43222C102.297 6.43222 102.834 6.51298 103.214 6.85606C103.662 7.26019 103.782 7.95055 103.782 7.95055L103.911 7.82811C104.895 6.89321 105.948 6.43222 107.072 6.43222Z" fill="#FEFEFE"/>
<mask id="mask1_1_601" style="mask-type:luminance" maskUnits="userSpaceOnUse" x="58" y="0" width="5" height="6">
<path fill-rule="evenodd" clip-rule="evenodd" d="M58.3293 0.30072H62.9069V5.11935H58.3293V0.30072Z" fill="white"/>
</mask>
<g mask="url(#mask1_1_601)">
<path fill-rule="evenodd" clip-rule="evenodd" d="M59.0034 0.980866C59.4553 0.527073 59.9965 0.300659 60.6345 0.300659C61.2942 0.300659 61.8356 0.528681 62.264 0.979901C62.6908 1.40732 62.9069 1.96467 62.9069 2.66C62.9069 3.35307 62.6814 3.93422 62.2304 4.4086C61.8005 4.88265 61.27 5.11936 60.6345 5.11936C59.976 5.11936 59.4251 4.88361 58.9741 4.4086C58.5438 3.93454 58.3293 3.35468 58.3293 2.66C58.3293 1.99008 58.5533 1.43273 59.0034 0.980866Z" fill="#FEFEFE"/>
</g>
<path fill-rule="evenodd" clip-rule="evenodd" d="M62.3483 25.0093C61.9542 25.4878 61.4427 25.7289 60.8053 25.7289C60.1881 25.7289 59.676 25.4999 59.26 25.0411C58.865 24.5822 58.6667 24.0043 58.6667 23.2962V9.10562C58.6667 7.3009 59.397 6.43222 60.8675 6.43222C62.254 6.43222 62.9445 7.26525 62.9445 9.0026V23.2275C62.9445 23.9356 62.7451 24.5269 62.3483 25.0093Z" fill="#FEFEFE"/>
<path fill-rule="evenodd" clip-rule="evenodd" d="M90.7715 25.3233C90.13 25.59 89.3808 25.725 88.5232 25.725C86.6157 25.725 85.1413 25.1847 84.0862 24.1155C83.0322 23.047 82.5 21.5631 82.5 19.6498C82.5 17.5352 83.1564 15.9891 84.4571 14.9889C85.785 13.9607 87.8853 13.4374 90.7761 13.4374H91.4427H91.8554H92.1725C92.2768 13.4374 92.3351 13.3534 92.3628 13.2715C92.3897 13.1905 92.4006 13.0812 92.4006 12.9524C92.4006 12.118 92.2191 11.4919 91.8303 11.0973C91.443 10.6806 90.8304 10.4858 90.0149 10.4858C88.9522 10.4858 87.8439 10.9178 86.6897 11.7684C86.2025 12.1112 85.8711 12.322 85.6895 12.4085C85.5159 12.4921 85.2978 12.5357 85.0322 12.5357C84.4849 12.5357 84.0463 12.3513 83.708 11.987C83.3911 11.6009 83.2298 11.1055 83.2298 10.4923C83.2298 9.9748 83.408 9.47582 83.7774 8.99051C84.1701 8.50032 84.6773 8.0651 85.3038 7.68291C85.9511 7.30071 86.6933 6.9969 87.5319 6.77116C88.3704 6.54542 89.2401 6.43222 90.1414 6.43222C91.0854 6.43222 91.9433 6.5568 92.7154 6.80369C93.5095 7.05155 94.187 7.39992 94.7465 7.84652C95.3276 8.29377 95.7726 8.82918 96.0822 9.4511C96.3906 10.0486 96.5456 10.7145 96.5456 11.4493L96.5556 23.2662C96.5556 24.002 96.3505 24.5933 95.9481 25.0474C95.5651 25.5002 95.0682 25.7289 94.4495 25.7289C93.8496 25.7289 93.3418 25.5122 92.9174 25.0764C92.6574 24.7966 92.4813 24.4749 92.3891 24.1087L92.3499 24.1571C91.9384 24.6665 91.4131 25.0559 90.7715 25.3233ZM89.6294 17.3202C88.7933 17.3664 88.1339 17.5755 87.6678 17.9577C87.2168 18.3461 86.9939 18.8926 86.9939 19.5815C86.9939 20.2213 87.1836 20.733 87.5684 21.0996C87.9735 21.4626 88.529 21.6382 89.221 21.6382C90.1278 21.6382 90.8724 21.3822 91.4449 20.8605C92.0188 20.3378 92.3055 19.6459 92.3055 18.7959V17.8045C92.3055 17.6526 92.3024 17.5388 92.2973 17.463C92.294 17.4187 92.2894 17.3856 92.2849 17.3631C92.2743 17.3146 92.2529 17.2867 92.2308 17.2707C92.2006 17.2454 92.1647 17.2343 92.1366 17.2281C92.1049 17.2216 92.0641 17.2174 92.0133 17.2174L91.7569 17.2177L91.2464 17.2519L90.5504 17.2857L89.6294 17.3202Z" fill="#FEFEFE"/>
</svg>
